<?xml version="1.0" encoding="UTF-8"?>
<svg id="Calque_1" data-name="Calque 1" xmlns="http://www.w3.org/2000/svg" xmlns:xlink="http://www.w3.org/1999/xlink" viewBox="0 0 3649.17 1349.9">
  <defs>
    <style>
      .cls-1 {
        fill: url(#Dégradé_sans_nom_2);
        isolation: isolate;
        opacity: .67;
      }

      .cls-1, .cls-2, .cls-3, .cls-4, .cls-5, .cls-6, .cls-7, .cls-8, .cls-9, .cls-10, .cls-11 {
        stroke-width: 0px;
      }

      .cls-2 {
        fill: url(#Dégradé_sans_nom_7);
      }

      .cls-3 {
        fill: url(#Dégradé_sans_nom_4);
      }

      .cls-4 {
        fill: url(#Dégradé_sans_nom_5);
      }

      .cls-5 {
        fill: url(#Dégradé_sans_nom_3);
      }

      .cls-6 {
        fill: #454545;
      }

      .cls-7 {
        fill: #a9a9aa;
      }

      .cls-8 {
        fill: url(#Dégradé_sans_nom_74);
      }

      .cls-9 {
        fill: url(#Dégradé_sans_nom_15);
      }

      .cls-10 {
        fill: url(#Dégradé_sans_nom_11);
      }

      .cls-11 {
        fill: url(#Dégradé_sans_nom_82);
      }
    </style>
    <radialGradient id="Dégradé_sans_nom_7" data-name="Dégradé sans nom 7" cx="613.51" cy="247.5" fx="38.4" fy="52.79" r="684.63" gradientUnits="userSpaceOnUse">
      <stop offset="0" stop-color="#f39447"/>
      <stop offset=".8" stop-color="#e94459"/>
    </radialGradient>
    <radialGradient id="Dégradé_sans_nom_15" data-name="Dégradé sans nom 15" cx="1147.75" cy="9317.7" fx="1147.75" fy="9317.7" r="1397.25" gradientUnits="userSpaceOnUse">
      <stop offset="0" stop-color="#fdef71"/>
      <stop offset=".5" stop-color="#e94459"/>
      <stop offset="1" stop-color="#e11f85"/>
    </radialGradient>
    <radialGradient id="Dégradé_sans_nom_2" data-name="Dégradé sans nom 2" cx="132.95" cy="9259.91" fx="132.95" fy="9259.91" r="827.19" gradientUnits="userSpaceOnUse">
      <stop offset="0" stop-color="#c31782"/>
      <stop offset="1" stop-color="#e94459" stop-opacity="0"/>
    </radialGradient>
    <radialGradient id="Dégradé_sans_nom_3" data-name="Dégradé sans nom 3" cx="1269.08" cy="9397.22" fx="1269.08" fy="9397.22" r="1640.72" gradientUnits="userSpaceOnUse">
      <stop offset="0" stop-color="#ffde68" stop-opacity=".6"/>
      <stop offset=".09" stop-color="#ffd967" stop-opacity=".58"/>
      <stop offset=".2" stop-color="#fdca67" stop-opacity=".52"/>
      <stop offset=".32" stop-color="#f8b166" stop-opacity=".43"/>
      <stop offset=".45" stop-color="#f28e62" stop-opacity=".3"/>
      <stop offset=".57" stop-color="#ec655c" stop-opacity=".14"/>
      <stop offset=".66" stop-color="#e94459" stop-opacity="0"/>
    </radialGradient>
    <radialGradient id="Dégradé_sans_nom_4" data-name="Dégradé sans nom 4" cx="690.46" cy="664.99" fx="690.46" fy="664.99" r="2130.76" gradientUnits="userSpaceOnUse">
      <stop offset=".15" stop-color="#811625"/>
      <stop offset=".17" stop-color="#93172a" stop-opacity=".86"/>
      <stop offset=".22" stop-color="#cc2a41" stop-opacity=".4"/>
      <stop offset=".25" stop-color="#e83c51" stop-opacity=".11"/>
      <stop offset=".27" stop-color="#e94459" stop-opacity="0"/>
    </radialGradient>
    <radialGradient id="Dégradé_sans_nom_5" data-name="Dégradé sans nom 5" cx="527.74" cy="691.6" fx="527.74" fy="691.6" r="2135.49" gradientUnits="userSpaceOnUse">
      <stop offset=".11" stop-color="#811625"/>
      <stop offset=".13" stop-color="#93172a" stop-opacity=".86"/>
      <stop offset=".2" stop-color="#cc2a41" stop-opacity=".4"/>
      <stop offset=".26" stop-color="#e83c51" stop-opacity=".11"/>
      <stop offset=".28" stop-color="#e94459" stop-opacity="0"/>
    </radialGradient>
    <radialGradient id="Dégradé_sans_nom_82" data-name="Dégradé sans nom 82" cx="645.49" cy="1748.97" fx="645.49" fy="1748.97" r="1307.98" gradientUnits="userSpaceOnUse">
      <stop offset="0" stop-color="#f39447"/>
      <stop offset=".8" stop-color="#e94459"/>
    </radialGradient>
    <radialGradient id="Dégradé_sans_nom_74" data-name="Dégradé sans nom 74" cx="1158.22" cy="2440.86" fx="1158.22" fy="2440.86" r="1307.98" gradientUnits="userSpaceOnUse">
      <stop offset=".08" stop-color="#ffde68"/>
      <stop offset=".15" stop-color="#362a72" stop-opacity=".97"/>
      <stop offset=".25" stop-color="#ffd563" stop-opacity=".88"/>
      <stop offset=".37" stop-color="#fdcb5e" stop-opacity=".73"/>
      <stop offset=".51" stop-color="#faba57" stop-opacity=".53"/>
      <stop offset=".67" stop-color="#f7a84e" stop-opacity=".28"/>
      <stop offset=".82" stop-color="#f39447" stop-opacity="0"/>
    </radialGradient>
    <radialGradient id="Dégradé_sans_nom_11" data-name="Dégradé sans nom 11" cx="1463.68" cy="2143.71" fx="1463.68" fy="2143.71" r="1843.39" gradientUnits="userSpaceOnUse">
      <stop offset=".05" stop-color="#fdef71"/>
      <stop offset=".46" stop-color="#f39447"/>
      <stop offset=".64" stop-color="#f39447"/>
    </radialGradient>
  </defs>
  <g>
    <g>
      <path class="cls-6" d="m1710.85,707.79c44.42-18.43,83.19-62.29,83.19-130.73,0-78.96-59.55-154.41-217.43-154.41h-284.55v18.07c37.99,88.57,59.09,186.09,59.09,288.56s-21.1,200-59.09,288.56v9.29h294.94c138.02,0,225.94-77.2,225.94-180.72,0-79.85-57.67-122.83-102.1-138.62Zm-280.77-184.25h135.19c53.88,0,89.81,22.81,89.81,66.67s-27.42,71.08-94.53,71.08h-130.47v-137.75Zm127.62,402.7h-127.62v-164.07h126.68c77.52,0,111.56,30.7,111.56,79.84,0,54.39-34.04,84.23-110.61,84.23Z"/>
      <path class="cls-6" d="m2055.87,887.63l-50.11,139.5h-138.97l221.21-604.49h176.78l231.61,604.49h-148.43l-53.88-139.5h-238.22Zm207.97-107.03c-46.32-128.09-75.62-209.69-91.69-264.08h-.95c-16.08,59.65-48.21,154.41-85.08,264.08h177.72Z"/>
      <path class="cls-6" d="m2685.45,849.91c15.13,60.54,61.45,87.73,137.07,87.73s107.78-28.07,107.78-71.94c0-50.01-31.2-71.06-142.76-94.75-177.72-38.6-221.21-99.14-221.21-180.74,0-105.27,85.08-176.34,239.17-176.34,173.01,0,242.01,85.99,251.47,174.6h-141.81c-7.57-37.73-29.3-78.09-113.44-78.09-57.67,0-91.7,21.94-91.7,64.92s27.42,59.67,133.29,81.6c189.07,42.12,230.67,107.04,230.67,193.01,0,109.66-89.81,186-261.87,186s-253.35-75.46-268.47-186h141.79Z"/>
      <path class="cls-6" d="m3315.04,529.68h-198.52v-107.04h536.95v107.04h-197.57v497.45h-140.86v-497.45Z"/>
    </g>
    <g>
      <path class="cls-6" d="m1367.48,1208.92c0,5.43-1.39,10.28-4.16,14.53-2.77,4.26-6.49,7.58-11.15,10-4.68,2.4-9.77,3.61-15.31,3.61h-51.52v-109.21h52.61c5.13,0,9.55,1.36,13.3,4.09,3.74,2.71,6.61,6.19,8.61,10.45,2.01,4.26,3.01,8.69,3.01,13.31,0,5.43-1.39,10.46-4.16,15.07-2.77,4.62-6.61,8.06-11.53,10.31,6.25,1.84,11.19,5.28,14.84,10.31,3.64,5.03,5.46,10.87,5.46,17.54Zm-71.38-71.69v40.3h37.54c3.58,0,6.77-.94,9.54-2.84,2.77-1.91,4.97-4.4,6.61-7.47,1.64-3.08,2.46-6.35,2.46-9.84,0-3.69-.77-7.05-2.3-10.07-1.54-3.02-3.64-5.46-6.31-7.3-2.67-1.85-5.69-2.78-9.07-2.78h-38.46Zm60.61,69.84c0-3.69-.83-7.09-2.46-10.22-1.64-3.13-3.88-5.67-6.7-7.61-2.82-1.95-6.02-2.94-9.61-2.94h-41.85v41.39h40.77c3.69,0,7.02-.97,10-2.92,2.98-1.95,5.35-4.49,7.15-7.61,1.8-3.13,2.7-6.49,2.7-10.08Z"/>
      <path class="cls-6" d="m1388.7,1237.06v-71.83h-11.08v-8.31h11.08v-2.15c0-6.56.94-12.2,2.85-16.92,1.9-4.72,4.61-8.33,8.15-10.84,3.54-2.51,7.72-3.76,12.54-3.76,3.17,0,6.25.46,9.23,1.38,2.98.93,5.53,2.16,7.7,3.69l-3.23,7.54c-1.33-1.12-3.08-2.01-5.24-2.61-2.15-.62-4.3-.93-6.46-.93-4.82,0-8.54,1.9-11.15,5.69-2.61,3.79-3.92,9.28-3.92,16.46v2.46h22.15v8.31h-22.15v71.83h-10.46Z"/>
      <path class="cls-6" d="m1428.85,1214.15c0-4.99,1.43-9.3,4.3-12.92,2.88-3.61,6.85-6.42,11.92-8.4,5.08-1.99,10.95-2.99,17.61-2.99,3.9,0,7.95.31,12.16.93,4.2.62,7.93,1.54,11.22,2.77v-6.74c0-6.73-1.99-12.08-6-16.05-4-3.97-9.54-5.97-16.61-5.97-4.31,0-8.54.8-12.68,2.39-4.16,1.59-8.5,3.92-13,6.99l-4-7.39c5.24-3.58,10.36-6.28,15.39-8.07,5.01-1.78,10.14-2.68,15.38-2.68,9.84,0,17.64,2.79,23.38,8.4,5.74,5.6,8.61,13.36,8.61,23.24v36.84c0,1.42.31,2.47.93,3.13s1.59,1.04,2.92,1.15v8.3c-1.14.1-2.11.21-2.92.31-.83.1-1.45.1-1.85,0-2.56-.1-4.51-.93-5.84-2.46-1.33-1.54-2.05-3.19-2.15-4.93l-.15-5.84c-3.6,4.62-8.26,8.17-14,10.69-5.74,2.51-11.59,3.78-17.54,3.78-5.13,0-9.76-1.11-13.92-3.29-4.16-2.2-7.39-5.15-9.69-8.88-2.3-3.72-3.45-7.82-3.45-12.3Zm53.67,6.09c1.14-1.42,2.01-2.79,2.63-4.11.6-1.32.91-2.49.91-3.51v-11.59c-3.48-1.32-7.09-2.33-10.84-3.05-3.75-.7-7.51-1.07-11.3-1.07-7.49,0-13.54,1.47-18.14,4.42-4.62,2.95-6.92,6.97-6.92,12.04,0,2.95.76,5.73,2.3,8.31,1.53,2.6,3.79,4.72,6.77,6.4,2.98,1.67,6.46,2.51,10.46,2.51,5.01,0,9.7-.97,14.07-2.89,4.35-1.94,7.71-4.42,10.07-7.47Z"/>
      <path class="cls-6" d="m1545.44,1238.61c-6.56,0-12.67-1.08-18.3-3.23-5.65-2.16-10.52-5.43-14.62-9.84l4.31-7.39c4.51,4.2,9.04,7.25,13.61,9.14,4.56,1.91,9.41,2.85,14.53,2.85,6.26,0,11.33-1.25,15.24-3.74,3.89-2.49,5.84-6.07,5.84-10.74,0-3.16-.95-5.59-2.85-7.27-1.9-1.69-4.61-3.05-8.15-4.13-3.54-1.07-7.77-2.22-12.7-3.44-5.53-1.53-10.18-3.13-13.92-4.82-3.75-1.69-6.56-3.82-8.47-6.42-1.9-2.61-2.84-6-2.84-10.18,0-5.2,1.31-9.51,3.92-12.92,2.61-3.41,6.21-6.01,10.77-7.81,4.56-1.78,9.66-2.67,15.31-2.67,6.15,0,11.59.97,16.3,2.92,4.72,1.95,8.55,4.66,11.53,8.15l-5.07,7.08c-2.88-3.27-6.29-5.72-10.24-7.3-3.95-1.59-8.33-2.39-13.14-2.39-3.29,0-6.42.44-9.38,1.31-2.98.86-5.41,2.29-7.32,4.28-1.9,1.98-2.84,4.7-2.84,8.17,0,2.85.72,5.07,2.15,6.64,1.43,1.59,3.6,2.91,6.46,3.97,2.88,1.08,6.4,2.22,10.62,3.44,6.05,1.63,11.33,3.29,15.84,4.97,4.51,1.69,8,3.85,10.46,6.5,2.46,2.64,3.69,6.36,3.69,11.15,0,7.44-2.82,13.26-8.47,17.43-5.63,4.18-13.07,6.28-22.3,6.28Z"/>
      <path class="cls-6" d="m1631.89,1233.83c-.83.31-2.11.87-3.85,1.69-1.76.83-3.85,1.54-6.31,2.16-2.47.62-5.14.93-8,.93s-5.77-.58-8.38-1.7c-2.61-1.14-4.69-2.86-6.22-5.18-1.54-2.32-2.32-5.17-2.32-8.57v-57.62h-11.07v-8.31h11.07v-27.06h10.46v27.06h18.45v8.31h-18.45v54.71c.21,2.89,1.25,5.06,3.16,6.49,1.9,1.45,4.07,2.16,6.53,2.16,2.86,0,5.49-.48,7.85-1.46,2.36-.97,3.79-1.66,4.3-2.06l2.78,8.45Z"/>
      <path class="cls-6" d="m1715.4,1127.85h9.09l45.37,109.21h-11.39l-13.65-34.15h-49.91l-13.65,34.15h-11.54l45.68-109.21Zm26.04,66.61l-21.57-54-21.58,54h43.15Z"/>
      <path class="cls-6" d="m1808.62,1238.61c-6.57,0-12.67-1.08-18.31-3.23-5.63-2.16-10.5-5.43-14.6-9.84l4.3-7.39c4.52,4.2,9.06,7.25,13.62,9.14,4.56,1.91,9.41,2.85,14.53,2.85,6.25,0,11.33-1.25,15.22-3.74,3.9-2.49,5.84-6.07,5.84-10.74,0-3.16-.94-5.59-2.84-7.27-1.9-1.69-4.62-3.05-8.16-4.13-3.54-1.07-7.77-2.22-12.68-3.44-5.55-1.53-10.18-3.13-13.93-4.82-3.74-1.69-6.56-3.82-8.45-6.42-1.9-2.61-2.85-6-2.85-10.18,0-5.2,1.31-9.51,3.93-12.92,2.61-3.41,6.19-6.01,10.76-7.81,4.56-1.78,9.68-2.67,15.31-2.67,6.15,0,11.59.97,16.3,2.92,4.72,1.95,8.57,4.66,11.54,8.15l-5.08,7.08c-2.86-3.27-6.28-5.72-10.22-7.3-3.95-1.59-8.33-2.39-13.16-2.39-3.27,0-6.4.44-9.38,1.31-2.98.86-5.41,2.29-7.3,4.28-1.9,1.98-2.85,4.7-2.85,8.17,0,2.85.72,5.07,2.16,6.64,1.43,1.59,3.58,2.91,6.46,3.97,2.86,1.08,6.4,2.22,10.6,3.44,6.05,1.63,11.33,3.29,15.85,4.97,4.51,1.69,7.99,3.85,10.45,6.5,2.47,2.64,3.69,6.36,3.69,11.15,0,7.44-2.82,13.26-8.45,17.43-5.65,4.18-13.07,6.28-22.3,6.28Z"/>
      <path class="cls-6" d="m1856.61,1140.17v-15.39h10.46v15.39h-10.46Zm0,96.9v-80.14h10.46v80.14h-10.46Z"/>
      <path class="cls-6" d="m1883.68,1214.15c0-4.99,1.43-9.3,4.3-12.92,2.88-3.61,6.85-6.42,11.92-8.4,5.08-1.99,10.95-2.99,17.61-2.99,3.9,0,7.95.31,12.16.93,4.2.62,7.93,1.54,11.22,2.77v-6.74c0-6.73-1.99-12.08-6-16.05-4-3.97-9.54-5.97-16.61-5.97-4.31,0-8.54.8-12.68,2.39-4.16,1.59-8.5,3.92-13,6.99l-4-7.39c5.24-3.58,10.36-6.28,15.39-8.07,5.01-1.78,10.14-2.68,15.38-2.68,9.84,0,17.64,2.79,23.38,8.4,5.74,5.6,8.61,13.36,8.61,23.24v36.84c0,1.42.31,2.47.93,3.13s1.59,1.04,2.92,1.15v8.3c-1.14.1-2.11.21-2.92.31-.83.1-1.45.1-1.85,0-2.56-.1-4.51-.93-5.84-2.46-1.33-1.54-2.05-3.19-2.15-4.93l-.15-5.84c-3.6,4.62-8.26,8.17-14,10.69s-11.59,3.78-17.54,3.78c-5.13,0-9.76-1.11-13.92-3.29-4.16-2.2-7.39-5.15-9.69-8.88-2.3-3.72-3.45-7.82-3.45-12.3Zm53.67,6.09c1.14-1.42,2.01-2.79,2.63-4.11.6-1.32.91-2.49.91-3.51v-11.59c-3.48-1.32-7.09-2.33-10.84-3.05-3.75-.7-7.51-1.07-11.3-1.07-7.49,0-13.54,1.47-18.14,4.42-4.62,2.95-6.92,6.97-6.92,12.04,0,2.95.76,5.73,2.3,8.31,1.53,2.6,3.79,4.72,6.77,6.4,2.98,1.67,6.46,2.51,10.46,2.51,5.01,0,9.7-.97,14.07-2.89,4.35-1.94,7.71-4.42,10.07-7.47Z"/>
      <path class="cls-6" d="m2041.35,1237.06h-10.46v-44.47c0-9.37-1.39-16.22-4.16-20.56-2.77-4.33-7.12-6.49-13.07-6.49-4.1,0-8.15.98-12.15,2.98-4,1.98-7.51,4.68-10.53,8.09-3.03,3.4-5.21,7.29-6.54,11.67v48.79h-10.46v-79.84h9.54v18.2c2.16-3.88,4.97-7.26,8.47-10.17,3.48-2.91,7.43-5.18,11.84-6.81,4.41-1.63,8.97-2.44,13.69-2.44,4.41,0,8.15.81,11.23,2.44,3.08,1.63,5.53,3.95,7.37,6.97,1.85,3.01,3.19,6.63,4,10.86s1.24,8.95,1.24,14.14v46.65Z"/>
      <path class="cls-6" d="m2168.86,1148.31c-1.54-1.74-3.34-3.3-5.39-4.69s-4.35-2.58-6.92-3.61c-2.56-1.03-5.31-1.85-8.23-2.47-2.92-.6-6.02-.91-9.3-.91-9.54,0-16.54,1.81-20.99,5.45-4.47,3.64-6.7,8.58-6.7,14.82,0,4.31,1.05,7.68,3.16,10.14,2.09,2.46,5.41,4.45,9.91,6,4.51,1.53,10.25,3.12,17.23,4.76,7.79,1.63,14.51,3.58,20.15,5.83,5.63,2.26,10,5.29,13.07,9.14,3.08,3.83,4.61,9.03,4.61,15.59,0,5.01-.97,9.37-2.92,13.06-1.95,3.68-4.66,6.75-8.15,9.21-3.5,2.46-7.64,4.27-12.46,5.45-4.83,1.18-10.11,1.77-15.85,1.77s-11.05-.59-16.22-1.77c-5.18-1.18-10.08-2.92-14.69-5.24-4.62-2.3-8.92-5.25-12.92-8.83l5.38-8.78c1.95,2.05,4.28,3.97,6.99,5.77,2.72,1.8,5.74,3.41,9.09,4.84,3.33,1.43,6.92,2.54,10.76,3.31,3.85.76,7.82,1.15,11.92,1.15,8.72,0,15.52-1.59,20.39-4.76,4.86-3.17,7.3-7.88,7.3-14.13,0-4.51-1.24-8.12-3.69-10.83-2.46-2.71-6.15-4.94-11.08-6.68-4.92-1.74-10.97-3.43-18.14-5.07-7.6-1.74-14-3.68-19.23-5.83-5.24-2.15-9.16-5-11.77-8.52-2.61-3.54-3.92-8.22-3.92-14.06,0-6.75,1.66-12.47,5-17.13,3.33-4.65,7.92-8.19,13.76-10.59,5.84-2.42,12.55-3.61,20.15-3.61,4.82,0,9.3.48,13.45,1.46,4.16.97,8,2.37,11.54,4.23,3.52,1.84,6.84,4.16,9.91,6.92l-5.22,8.61Z"/>
      <path class="cls-6" d="m2230.38,1238.61c-5.74,0-11.05-1.11-15.93-3.3-4.87-2.19-9.07-5.2-12.61-9.02-3.54-3.83-6.28-8.22-8.23-13.16s-2.92-10.17-2.92-15.67.97-11.04,2.92-16c1.95-4.94,4.72-9.32,8.31-13.14,3.58-3.83,7.81-6.84,12.68-9.03s10.18-3.29,15.93-3.29,11.02,1.1,15.84,3.29c4.82,2.19,9.02,5.2,12.61,9.03,3.6,3.82,6.36,8.2,8.31,13.14,1.94,4.96,2.92,10.28,2.92,16s-.98,10.73-2.92,15.67c-1.95,4.94-4.69,9.32-8.23,13.16-3.54,3.82-7.75,6.83-12.62,9.02-4.86,2.19-10.22,3.3-16.07,3.3Zm-29.07-41.01c0,5.91,1.31,11.28,3.92,16.12,2.61,4.83,6.12,8.65,10.53,11.45,4.41,2.81,9.28,4.2,14.62,4.2s10.2-1.42,14.6-4.27c4.41-2.85,7.95-6.74,10.62-11.68,2.67-4.94,4-10.31,4-16.11s-1.33-11.3-4-16.19c-2.67-4.89-6.21-8.76-10.62-11.61-4.41-2.85-9.28-4.27-14.6-4.27s-10.18,1.47-14.53,4.42c-4.37,2.95-7.88,6.85-10.55,11.68-2.65,4.84-3.99,10.27-3.99,16.26Z"/>
      <path class="cls-6" d="m2288.21,1124.77h10.46v94.69c0,4.03.72,6.66,2.15,7.89,1.43,1.24,3.19,1.85,5.24,1.85,1.84,0,3.69-.2,5.53-.6,1.84-.42,3.44-.83,4.77-1.24l1.84,8.45c-1.95.83-4.34,1.49-7.15,2.01-2.82.51-5.27.77-7.32.77-4.72,0-8.48-1.4-11.3-4.18-2.82-2.78-4.23-6.6-4.23-11.45v-98.2Z"/>
      <path class="cls-6" d="m2328.81,1204.12v-46.89h10.46v45.04c0,9.09,1.57,15.88,4.69,20.36,3.13,4.49,7.77,6.74,13.93,6.74,4.1,0,8.07-.88,11.91-2.67,3.85-1.78,7.26-4.34,10.24-7.65,2.98-3.31,5.22-7.16,6.77-11.56v-50.26h10.46v67.24c0,1.43.31,2.47.91,3.15.62.66,1.54,1.04,2.77,1.15v8.3c-1.22.1-2.2.18-2.92.22-.72.06-1.38.08-1.99.08-2.05-.21-3.82-1.03-5.31-2.46-1.49-1.42-2.28-3.16-2.39-5.21l-.31-10.72c-3.48,6.12-8.23,10.93-14.23,14.39-6,3.48-12.48,5.22-19.45,5.22-8.41,0-14.77-2.92-19.07-8.73-4.31-5.83-6.47-14.41-6.47-25.76Z"/>
      <path class="cls-6" d="m2459.41,1233.83c-.83.31-2.11.87-3.85,1.69-1.76.83-3.85,1.54-6.31,2.16-2.47.62-5.14.93-8,.93s-5.77-.58-8.38-1.7c-2.61-1.14-4.69-2.86-6.22-5.18-1.54-2.32-2.32-5.17-2.32-8.57v-57.62h-11.07v-8.31h11.07v-27.06h10.46v27.06h18.45v8.31h-18.45v54.71c.21,2.89,1.25,5.06,3.16,6.49,1.9,1.45,4.07,2.16,6.53,2.16,2.86,0,5.49-.48,7.85-1.46,2.36-.97,3.79-1.66,4.3-2.06l2.78,8.45Z"/>
      <path class="cls-6" d="m2472.47,1140.17v-15.39h10.46v15.39h-10.46Zm0,96.9v-80.14h10.46v80.14h-10.46Z"/>
      <path class="cls-6" d="m2540.16,1238.61c-5.74,0-11.05-1.11-15.93-3.3-4.87-2.19-9.07-5.2-12.61-9.02-3.54-3.83-6.28-8.22-8.23-13.16s-2.92-10.17-2.92-15.67.97-11.04,2.92-16c1.95-4.94,4.72-9.32,8.31-13.14,3.58-3.83,7.81-6.84,12.68-9.03,4.87-2.19,10.18-3.29,15.93-3.29s11.02,1.1,15.84,3.29c4.82,2.19,9.02,5.2,12.61,9.03,3.6,3.82,6.36,8.2,8.31,13.14,1.94,4.96,2.92,10.28,2.92,16s-.98,10.73-2.92,15.67c-1.95,4.94-4.69,9.32-8.23,13.16-3.54,3.82-7.75,6.83-12.62,9.02-4.86,2.19-10.22,3.3-16.07,3.3Zm-29.07-41.01c0,5.91,1.31,11.28,3.92,16.12,2.61,4.83,6.12,8.65,10.53,11.45,4.41,2.81,9.28,4.2,14.62,4.2s10.2-1.42,14.6-4.27c4.41-2.85,7.95-6.74,10.62-11.68,2.67-4.94,4-10.31,4-16.11s-1.33-11.3-4-16.19c-2.67-4.89-6.21-8.76-10.62-11.61-4.41-2.85-9.28-4.27-14.6-4.27s-10.18,1.47-14.53,4.42c-4.37,2.95-7.88,6.85-10.55,11.68-2.65,4.84-3.99,10.27-3.99,16.26Z"/>
      <path class="cls-6" d="m2664.91,1237.06h-10.46v-44.47c0-9.37-1.39-16.22-4.16-20.56-2.77-4.33-7.12-6.49-13.07-6.49-4.1,0-8.15.98-12.15,2.98-4,1.98-7.51,4.68-10.53,8.09-3.03,3.4-5.21,7.29-6.54,11.67v48.79h-10.46v-79.84h9.54v18.2c2.16-3.88,4.97-7.26,8.47-10.17,3.48-2.91,7.43-5.18,11.84-6.81,4.41-1.63,8.97-2.44,13.69-2.44,4.41,0,8.15.81,11.23,2.44,3.08,1.63,5.53,3.95,7.37,6.97,1.85,3.01,3.19,6.63,4,10.86.81,4.23,1.24,8.95,1.24,14.14v46.65Z"/>
      <path class="cls-6" d="m2801.65,1137.38h-38.91v99.68h-10.77v-99.68h-38.91v-9.54h88.6v9.54Z"/>
      <path class="cls-6" d="m2833.17,1238.61c-5.74,0-11.07-1.11-16-3.3-4.92-2.2-9.18-5.21-12.77-9.04-3.6-3.83-6.39-8.24-8.38-13.26-1.99-5-3.01-10.36-3.01-16.09,0-7.43,1.73-14.24,5.15-20.46,3.44-6.21,8.19-11.16,14.24-14.87,6.04-3.72,12.92-5.58,20.6-5.58s14.79,1.88,20.69,5.65c5.9,3.78,10.55,8.73,13.93,14.9s5.07,12.91,5.07,20.24v2.37c0,.76-.06,1.35-.15,1.76h-68.6c.52,5.72,2.13,10.79,4.84,15.22,2.72,4.44,6.25,7.96,10.62,10.56,4.35,2.6,9.1,3.9,14.23,3.9s10.18-1.33,14.84-4c4.66-2.67,7.92-6.15,9.77-10.46l9.07,2.47c-1.64,3.79-4.16,7.22-7.54,10.29-3.38,3.09-7.36,5.46-11.92,7.16-4.56,1.69-9.45,2.54-14.69,2.54Zm-29.53-45.23h59.22c-.41-5.77-1.98-10.86-4.69-15.22-2.71-4.35-6.25-7.78-10.62-10.27-4.35-2.49-9.14-3.74-14.38-3.74s-10,1.25-14.3,3.74c-4.31,2.49-7.82,5.94-10.55,10.35-2.71,4.41-4.28,9.47-4.69,15.14Z"/>
      <path class="cls-6" d="m2923.61,1238.61c-5.84,0-11.21-1.11-16.07-3.3-4.87-2.19-9.13-5.22-12.78-9.1-3.64-3.88-6.46-8.31-8.45-13.3-1.99-5-3.01-10.31-3.01-15.91,0-7.56,1.7-14.44,5.08-20.66,3.38-6.21,8.1-11.16,14.16-14.83,6.04-3.68,13.02-5.5,20.91-5.5,7.49,0,14.1,1.71,19.84,5.15,5.74,3.43,10,8.07,12.77,13.92l-10.15,3.23c-2.25-4.1-5.41-7.3-9.45-9.62-4.06-2.3-8.54-3.45-13.47-3.45-5.32,0-10.2,1.38-14.6,4.13-4.41,2.74-7.92,6.52-10.55,11.29-2.61,4.79-3.92,10.24-3.92,16.35s1.33,11.46,4,16.33c2.67,4.9,6.21,8.79,10.62,11.68,4.41,2.91,9.28,4.35,14.6,4.35,3.48,0,6.85-.6,10.08-1.84,3.23-1.24,6.04-2.89,8.45-5s4.03-4.38,4.84-6.84l10.31,3.08c-1.43,3.79-3.82,7.2-7.15,10.22-3.34,3.02-7.23,5.38-11.7,7.08-4.45,1.69-9.25,2.54-14.38,2.54Z"/>
      <path class="cls-6" d="m3040.68,1237.06h-10.46v-44.47c0-8.96-1.59-15.71-4.77-20.25-3.17-4.54-7.74-6.8-13.68-6.8-3.9,0-7.78.98-11.61,2.98-3.85,1.98-7.23,4.68-10.15,8.09-2.92,3.4-5,7.29-6.24,11.67v48.79h-10.46v-112.29h10.46v50.65c3.17-5.91,7.61-10.63,13.3-14.14,5.7-3.52,11.77-5.28,18.23-5.28,4.62,0,8.54.81,11.77,2.44,3.23,1.63,5.86,4,7.85,7.11,1.99,3.12,3.45,6.74,4.38,10.87.93,4.13,1.39,8.79,1.39,13.99v46.65Z"/>
      <path class="cls-6" d="m3130.34,1237.06h-10.46v-44.47c0-9.37-1.38-16.22-4.14-20.56-2.77-4.33-7.13-6.49-13.07-6.49-4.1,0-8.16.98-12.16,2.98-3.99,1.98-7.51,4.68-10.53,8.09-3.02,3.4-5.21,7.29-6.53,11.67v48.79h-10.46v-79.84h9.54v18.2c2.15-3.88,4.97-7.26,8.45-10.17,3.48-2.91,7.44-5.18,11.85-6.81,4.41-1.63,8.97-2.44,13.68-2.44,4.41,0,8.16.81,11.23,2.44,3.08,1.63,5.53,3.95,7.39,6.97,1.84,3.01,3.17,6.63,4,10.86.81,4.23,1.22,8.95,1.22,14.14v46.65Z"/>
      <path class="cls-6" d="m3186.8,1238.61c-5.74,0-11.05-1.11-15.93-3.3s-9.07-5.2-12.61-9.02c-3.54-3.83-6.28-8.22-8.23-13.16-1.95-4.94-2.92-10.17-2.92-15.67s.97-11.04,2.92-16c1.95-4.94,4.72-9.32,8.31-13.14,3.58-3.83,7.81-6.84,12.68-9.03,4.87-2.19,10.18-3.29,15.93-3.29s11.02,1.1,15.84,3.29c4.82,2.19,9.02,5.2,12.61,9.03,3.6,3.82,6.36,8.2,8.31,13.14,1.94,4.96,2.92,10.28,2.92,16s-.98,10.73-2.92,15.67c-1.95,4.94-4.69,9.32-8.23,13.16-3.54,3.82-7.75,6.83-12.62,9.02-4.86,2.19-10.22,3.3-16.07,3.3Zm-29.07-41.01c0,5.91,1.31,11.28,3.92,16.12,2.61,4.83,6.12,8.65,10.53,11.45,4.41,2.81,9.28,4.2,14.62,4.2s10.2-1.42,14.6-4.27c4.41-2.85,7.95-6.74,10.62-11.68,2.67-4.94,4-10.31,4-16.11s-1.33-11.3-4-16.19c-2.67-4.89-6.21-8.76-10.62-11.61-4.41-2.85-9.28-4.27-14.6-4.27s-10.18,1.47-14.53,4.42c-4.37,2.95-7.88,6.85-10.55,11.68-2.65,4.84-3.99,10.27-3.99,16.26Z"/>
      <path class="cls-6" d="m3244.63,1124.77h10.46v94.69c0,4.03.72,6.66,2.15,7.89,1.43,1.24,3.19,1.85,5.24,1.85,1.84,0,3.69-.2,5.53-.6,1.84-.42,3.44-.83,4.77-1.24l1.84,8.45c-1.95.83-4.34,1.49-7.15,2.01-2.82.51-5.27.77-7.32.77-4.72,0-8.48-1.4-11.3-4.18-2.82-2.78-4.23-6.6-4.23-11.45v-98.2Z"/>
      <path class="cls-6" d="m3320.15,1238.61c-5.74,0-11.05-1.11-15.93-3.3-4.87-2.19-9.07-5.2-12.61-9.02-3.54-3.83-6.28-8.22-8.23-13.16-1.95-4.94-2.92-10.17-2.92-15.67s.97-11.04,2.92-16c1.95-4.94,4.72-9.32,8.31-13.14,3.58-3.83,7.81-6.84,12.68-9.03,4.87-2.19,10.18-3.29,15.93-3.29s11.02,1.1,15.84,3.29c4.82,2.19,9.02,5.2,12.61,9.03,3.6,3.82,6.36,8.2,8.31,13.14,1.94,4.96,2.92,10.28,2.92,16s-.98,10.73-2.92,15.67c-1.95,4.94-4.69,9.32-8.23,13.16-3.54,3.82-7.75,6.83-12.62,9.02-4.86,2.19-10.22,3.3-16.07,3.3Zm-29.07-41.01c0,5.91,1.31,11.28,3.92,16.12,2.61,4.83,6.12,8.65,10.53,11.45,4.41,2.81,9.28,4.2,14.62,4.2s10.2-1.42,14.6-4.27c4.41-2.85,7.95-6.74,10.62-11.68s4-10.31,4-16.11-1.33-11.3-4-16.19c-2.67-4.89-6.21-8.76-10.62-11.61-4.41-2.85-9.28-4.27-14.6-4.27s-10.18,1.47-14.53,4.42c-4.37,2.95-7.88,6.85-10.55,11.68-2.65,4.84-3.99,10.27-3.99,16.26Z"/>
      <path class="cls-6" d="m3409.66,1238.61c-5.43,0-10.45-1.14-15.07-3.38-4.62-2.26-8.59-5.31-11.92-9.16-3.33-3.85-5.93-8.23-7.77-13.16-1.84-4.92-2.77-10-2.77-15.22,0-5.65.9-10.94,2.7-15.93,1.78-4.97,4.35-9.41,7.68-13.3,3.33-3.9,7.26-6.95,11.77-9.16,4.51-2.2,9.54-3.3,15.08-3.3,6.87,0,12.84,1.71,17.92,5.15,5.07,3.43,9.35,7.71,12.84,12.84v-16.77h9.38v80.23c0,7.37-1.77,13.58-5.31,18.65-3.54,5.06-8.3,8.86-14.3,11.43-6,2.56-12.54,3.83-19.62,3.83-9.13,0-16.5-1.64-22.15-4.93-5.65-3.29-10.25-7.7-13.85-13.23l6.46-5.07c3.19,5.01,7.41,8.76,12.7,11.22,5.28,2.46,10.9,3.69,16.84,3.69,5.24,0,10.03-.93,14.38-2.79,4.37-1.85,7.85-4.65,10.46-8.37,2.61-3.74,3.92-8.41,3.92-14.06v-15.84c-3.08,5.01-7.27,9.04-12.61,12.06-5.32,3.03-10.91,4.55-16.77,4.55Zm2.94-8.78c3.17,0,6.22-.56,9.14-1.69,2.92-1.14,5.62-2.64,8.07-4.54,2.47-1.9,4.52-4.03,6.15-6.39,1.64-2.36,2.67-4.77,3.08-7.23v-24.76c-1.53-3.9-3.74-7.36-6.6-10.39-2.88-3.02-6.14-5.38-9.77-7.06-3.64-1.7-7.41-2.54-11.3-2.54-4.51,0-8.54.94-12.08,2.85-3.54,1.9-6.52,4.41-8.92,7.53-2.42,3.13-4.28,6.64-5.62,10.55-1.33,3.89-1.99,7.79-1.99,11.68,0,4.31.76,8.38,2.3,12.23,1.53,3.85,3.67,7.27,6.38,10.31,2.72,3.02,5.9,5.35,9.55,6.99,3.64,1.64,7.5,2.46,11.61,2.46Z"/>
      <path class="cls-6" d="m3472.58,1140.17v-15.39h10.46v15.39h-10.46Zm0,96.9v-80.14h10.46v80.14h-10.46Z"/>
      <path class="cls-6" d="m3540.72,1238.61c-5.74,0-11.07-1.11-16-3.3-4.92-2.2-9.18-5.21-12.77-9.04-3.6-3.83-6.39-8.24-8.38-13.26-1.99-5-3.01-10.36-3.01-16.09,0-7.43,1.73-14.24,5.15-20.46,3.44-6.21,8.19-11.16,14.24-14.87,6.04-3.72,12.92-5.58,20.6-5.58s14.79,1.88,20.69,5.65c5.9,3.78,10.55,8.73,13.93,14.9,3.38,6.16,5.07,12.91,5.07,20.24v2.37c0,.76-.06,1.35-.15,1.76h-68.6c.52,5.72,2.13,10.79,4.84,15.22,2.72,4.44,6.25,7.96,10.62,10.56,4.35,2.6,9.1,3.9,14.23,3.9s10.18-1.33,14.84-4c4.66-2.67,7.92-6.15,9.77-10.46l9.07,2.47c-1.64,3.79-4.16,7.22-7.54,10.29-3.38,3.09-7.36,5.46-11.92,7.16-4.56,1.69-9.45,2.54-14.69,2.54Zm-29.53-45.23h59.22c-.41-5.77-1.98-10.86-4.69-15.22-2.71-4.35-6.25-7.78-10.62-10.27-4.35-2.49-9.14-3.74-14.38-3.74s-10,1.25-14.3,3.74c-4.31,2.49-7.82,5.94-10.55,10.35-2.71,4.41-4.28,9.47-4.69,15.14Z"/>
      <path class="cls-6" d="m3622.7,1238.61c-6.56,0-12.67-1.08-18.3-3.23-5.65-2.16-10.52-5.43-14.62-9.84l4.31-7.39c4.51,4.2,9.04,7.25,13.61,9.14,4.56,1.91,9.41,2.85,14.53,2.85,6.26,0,11.33-1.25,15.24-3.74,3.89-2.49,5.84-6.07,5.84-10.74,0-3.16-.95-5.59-2.85-7.27-1.9-1.69-4.61-3.05-8.15-4.13-3.54-1.07-7.77-2.22-12.7-3.44-5.53-1.53-10.18-3.13-13.92-4.82-3.75-1.69-6.56-3.82-8.47-6.42-1.9-2.61-2.84-6-2.84-10.18,0-5.2,1.31-9.51,3.92-12.92,2.61-3.41,6.21-6.01,10.77-7.81,4.56-1.78,9.66-2.67,15.31-2.67,6.15,0,11.59.97,16.3,2.92,4.72,1.95,8.55,4.66,11.53,8.15l-5.07,7.08c-2.88-3.27-6.29-5.72-10.24-7.3-3.95-1.59-8.33-2.39-13.14-2.39-3.29,0-6.42.44-9.38,1.31-2.98.86-5.41,2.29-7.32,4.28-1.9,1.98-2.84,4.7-2.84,8.17,0,2.85.72,5.07,2.15,6.64,1.43,1.59,3.6,2.91,6.46,3.97,2.88,1.08,6.4,2.22,10.62,3.44,6.05,1.63,11.33,3.29,15.84,4.97,4.51,1.69,8,3.85,10.46,6.5,2.46,2.64,3.69,6.36,3.69,11.15,0,7.44-2.82,13.26-8.47,17.43-5.63,4.18-13.07,6.28-22.3,6.28Z"/>
    </g>
  </g>
  <g>
    <path class="cls-2" d="m282.63,278.51c108.33-69.4,231.9-105.18,373.39-105.18,219.29,0,448.21,174.15,571,325.2,0,0-64.16-187.16-257.8-323.64C813.02,64.81,636.3,94.45,599.55-3.54c0,0-2.01,66.12,46.53,95.8,0,0-119.39,10.86-209.37-68.47,0,0,6.84,54.83,32.51,68.82,0,0-149.31,44.33-248.46-17.5,0,0,21.58,77.57,54.83,100.32,0,0-139.98,34.12-275.59-14,0,0,45.49,148.73,209.97,183.72l72.66-66.66Z"/>
    <path class="cls-7" d="m788.19,981.49c-197.14,0-356.95-159.81-356.95-356.95,0-64.75,17.33-125.42,47.47-177.77-63.94,64.5-103.46,153.26-103.46,251.26,0,197.14,159.81,356.95,356.95,356.95,132.39,0,247.86-72.13,309.48-179.18-64.68,65.25-154.35,105.69-253.49,105.69Z"/>
    <g>
      <path class="cls-9" d="m1185.12,1050.73c-.63,1.73-1.27,3.45-1.92,5.17,32.63-38.7,56.25-93.4,68.22-125.06,27.49-86.7,35.81-179.48,22.86-271.83-13.85-98.2-50.85-191.71-107.94-272.8C967.41,103.68,577.11,35.9,294.58,234.82,12.04,433.74-55.74,824.04,143.18,1106.57c4.93,6.43,10.04,12.73,15.1,19.12,66.37,84.65,152.82,151.39,251.52,194.15,65.57,27.14,154.56,38.25,200.96,23.5-73.46-22.73-141.77-59.58-201.1-108.5-12.39-7.89-24.2-16.65-35.34-26.22-253.39-168.96-326.99-565.56-60.79-830.42,241.98-240.72,619.14-206.71,833.44,71.64,147.92,192.1,135.51,424.56,38.15,600.89Z"/>
      <path class="cls-1" d="m1185.12,1050.73c-.63,1.73-1.27,3.45-1.92,5.17,32.63-38.7,56.25-93.4,68.22-125.06,27.49-86.7,35.81-179.48,22.86-271.83-13.85-98.2-50.85-191.71-107.94-272.8C967.41,103.68,577.11,35.9,294.58,234.82,12.04,433.74-55.74,824.04,143.18,1106.57c4.93,6.43,10.04,12.73,15.1,19.12,66.37,84.65,152.82,151.39,251.52,194.15,65.57,27.14,154.56,38.25,200.96,23.5-73.46-22.73-141.77-59.58-201.1-108.5-12.39-7.89-24.2-16.65-35.34-26.22-253.39-168.96-326.99-565.56-60.79-830.42,241.98-240.72,619.14-206.71,833.44,71.64,147.92,192.1,135.51,424.56,38.15,600.89Z"/>
      <path class="cls-5" d="m1185.12,1050.73c-.63,1.73-1.27,3.45-1.92,5.17,32.63-38.7,56.25-93.4,68.22-125.06,27.49-86.7,35.81-179.48,22.86-271.83-13.85-98.2-50.85-191.71-107.94-272.8C967.41,103.68,577.11,35.9,294.58,234.82,12.04,433.74-55.74,824.04,143.18,1106.57c4.93,6.43,10.04,12.73,15.1,19.12,66.37,84.65,152.82,151.39,251.52,194.15,65.57,27.14,154.56,38.25,200.96,23.5-73.46-22.73-141.77-59.58-201.1-108.5-12.39-7.89-24.2-16.65-35.34-26.22-253.39-168.96-326.99-565.56-60.79-830.42,241.98-240.72,619.14-206.71,833.44,71.64,147.92,192.1,135.51,424.56,38.15,600.89Z"/>
      <path class="cls-3" d="m1185.12,1050.73c-.63,1.73-1.27,3.45-1.92,5.17,32.63-38.7,56.25-93.4,68.22-125.06,27.49-86.7,35.81-179.48,22.86-271.83-13.85-98.2-50.85-191.71-107.94-272.8C967.41,103.68,577.11,35.9,294.58,234.82,12.04,433.74-55.74,824.04,143.18,1106.57c4.93,6.43,10.04,12.73,15.1,19.12,66.37,84.65,152.82,151.39,251.52,194.15,65.57,27.14,154.56,38.25,200.96,23.5-73.46-22.73-141.77-59.58-201.1-108.5-12.39-7.89-24.2-16.65-35.34-26.22-253.39-168.96-326.99-565.56-60.79-830.42,241.98-240.72,619.14-206.71,833.44,71.64,147.92,192.1,135.51,424.56,38.15,600.89Z"/>
      <path class="cls-4" d="m1185.31,1050.39c-.69,1.89-1.47,3.74-2.19,5.62,32.7-38.73,56.36-93.53,68.32-125.21,27.48-86.68,35.79-179.45,22.84-271.78-13.85-98.2-50.85-191.71-107.94-272.8C967.41,103.68,577.11,35.9,294.58,234.82,12.04,433.74-55.74,824.04,143.18,1106.57c4.93,6.43,10.04,12.73,15.1,19.12,66.37,84.65,152.82,151.39,251.52,194.15,65.57,27.14,154.56,38.25,200.96,23.5-73.46-22.73-141.77-59.58-201.1-108.5-12.39-7.89-24.2-16.65-35.34-26.22-253.39-168.96-326.99-565.56-60.79-830.42,241.98-240.72,619.14-206.71,833.44,71.64,147.82,191.97,135.52,424.26,38.33,600.55Z"/>
      <path class="cls-11" d="m1212.9,889.83c0,.65.05,1.3.05,1.95.02.57.04,1.14.04,1.71,0,4.05-.06,8.08-.16,12.1-.03,1.18-.09,2.35-.13,3.52-.1,2.84-.19,5.68-.34,8.5-.07,1.4-.18,2.79-.27,4.18-.16,2.6-.31,5.2-.52,7.78-.11,1.45-.26,2.89-.39,4.33-.22,2.52-.44,5.05-.71,7.56-.15,1.43-.33,2.86-.49,4.29-.29,2.52-.58,5.04-.91,7.55-.18,1.38-.38,2.74-.58,4.12-.36,2.56-.72,5.11-1.12,7.65-.21,1.31-.43,2.62-.65,3.93-.43,2.6-.88,5.19-1.35,7.77-.23,1.23-.47,2.46-.71,3.69-.51,2.65-1.04,5.3-1.6,7.93-.24,1.15-.5,2.3-.75,3.45-.59,2.71-1.21,5.41-1.85,8.1-.25,1.06-.51,2.12-.77,3.17-.69,2.78-1.39,5.55-2.13,8.31-.25.95-.51,1.9-.77,2.85-.78,2.86-1.59,5.71-2.43,8.55-.25.84-.5,1.68-.75,2.52-.89,2.95-1.81,5.89-2.76,8.81-.23.72-.46,1.43-.7,2.15-1.01,3.07-2.05,6.12-3.13,9.15-.2.56-.39,1.12-.59,1.68-1.05,2.94-2.14,5.85-3.25,8.76,13.81-16.38,26-35.62,36.38-54.77,82.83-166.24,93.29-371.28-49.6-549.8-219.56-274.22-568.15-369.26-860.37-77.05-11.01,11-21.58,22.4-31.7,34.2-136.48,156.56-173.39,376.54-95.48,569.06,35.47,89.59,95.39,167.41,172.93,224.61,101.94,73.67,218.23,104.62,332.39,87.24,158.53-24.14,284.16-143.96,290.35-235.71-121.91,59.65-346.64,32.93-472.24-136.31-20.69-27.89-36.96-58.79-48.25-91.62-50.82-142.92-4.96-285.63,100.02-380.79,144.33-130.86,379.98-133.94,521.77,15.96,110.91,119.24,155.51,277.87,133.5,428.91Z"/>
      <path class="cls-8" d="m1210.25,889.83c0,.65.05,1.3.05,1.95.02.57.04,1.14.04,1.71,0,4.05-.06,8.08-.16,12.1-.03,1.18-.09,2.35-.13,3.52-.1,2.84-.19,5.68-.34,8.5-.07,1.4-.18,2.79-.27,4.18-.16,2.6-.31,5.2-.52,7.78-.11,1.45-.26,2.89-.39,4.33-.22,2.52-.44,5.05-.71,7.56-.15,1.43-.33,2.86-.49,4.29-.29,2.52-.58,5.04-.91,7.55-.18,1.38-.38,2.74-.58,4.12-.36,2.56-.72,5.11-1.12,7.65-.21,1.31-.43,2.62-.65,3.93-.43,2.6-.88,5.19-1.35,7.77-.23,1.23-.47,2.46-.71,3.69-.51,2.65-1.04,5.3-1.6,7.93-.24,1.15-.5,2.3-.75,3.45-.59,2.71-1.21,5.41-1.85,8.1-.25,1.06-.51,2.12-.77,3.17-.69,2.78-1.39,5.55-2.13,8.31-.25.95-.51,1.9-.77,2.85-.78,2.86-1.59,5.71-2.43,8.55-.25.84-.5,1.68-.75,2.52-.89,2.95-1.81,5.89-2.76,8.81-.23.72-.46,1.43-.7,2.15-1.01,3.07-2.05,6.12-3.13,9.15-.2.56-.39,1.12-.59,1.68-1.05,2.94-2.14,5.85-3.25,8.76,0,0,0,0,0,0,3.41-4.04,6.71-8.26,9.92-12.6.07-.09.13-.18.2-.27,3.17-4.31,6.24-8.74,9.21-13.26.08-.12.16-.24.24-.36,2.97-4.53,5.84-9.14,8.6-13.8.05-.09.11-.18.16-.27,2.79-4.71,5.48-9.46,8.05-14.21,0,0,0,0,0-.01,82.83-166.24,93.28-371.28-49.61-549.8-219.56-274.22-568.15-369.26-860.37-77.05-11.01,11-21.58,22.4-31.7,34.2-136.48,156.56-173.39,376.54-95.48,569.06,35.47,89.59,95.39,167.41,172.93,224.61,101.94,73.67,218.23,104.62,332.39,87.24,158.53-24.14,284.16-143.96,290.35-235.71-121.91,59.65-346.64,32.93-472.24-136.31-20.69-27.89-36.96-58.79-48.25-91.62-50.82-142.92-4.96-285.63,100.02-380.79,144.33-130.86,379.98-133.94,521.77,15.96,110.91,119.24,155.51,277.87,133.5,428.91Z"/>
      <path class="cls-10" d="m762.88,918.39c-159.74,12.78-288-199.08-132.13-374.83,21.77-24.58,47.23-44.03,74.95-58.43.95-.57,2.01-1.09,3.06-1.62.65-.33,1.3-.67,1.96-1,.14-.06.25-.14.4-.2.48-.21.98-.44,1.48-.66,4.13-2,8.31-3.88,12.54-5.66,10.34-4.47,24.27-9.73,44.09-14.2,1.61-.36,3.34-.72,5.12-1.07,11.17-2.33,22.51-3.93,33.96-4.87,11.73-1.16,22.91-1.76,30.61-1.39,10.9.51,21.69,1.67,32.39,3.23,1.54.21,3.07.38,4.61.61,1,.16,1.99.37,2.99.53,4.72.78,9.44,1.68,14.14,2.7,2.01.43,4,.91,6,1.38,2.56.61,5.12,1.23,7.68,1.91,171.7,44.17,306.29,220.62,306.29,428.66,0,57.74-10.75,112.97-30.31,163.82,169.92-227.18,85.9-464.62-71.52-608.31-116-105.86-353.2-181.39-553.52-4.04-109.49,93.65-149.36,245.43-100.02,380.79,27.88,61.59,89.39,126.19,157.56,139.74,75.93,15.06,129.45-18.84,147.7-47.1Z"/>
    </g>
    <path class="cls-6" d="m733.67,519.85s-69.66,117.52,152.72,95.65c0,0-18.23-135.02-152.72-95.65Z"/>
  </g>
</svg>